# File produced by Open Asset Import Library (http://www.assimp.sf.net)
# (assimp v3.1.187496374)

mtllib Map50x100(Win)2.obj.mtl

# 25 vertex positions
v  -250 20.8605 125
v  -125 20.8605 125
v  -125 20.8605 62.5
v  -250 20.8605 62.5
v  0 20.8605 125
v  0 20.8605 62.5
v  -125 20.8605 0
v  0 20.8605 0
v  -250 20.8605 0
v  -125 20.8605 -62.5
v  0 20.8605 -62.5
v  125 20.8605 0
v  125 20.8605 -62.5
v  125 20.8605 62.5
v  125 20.8605 125
v  250 20.8605 62.5
v  250 20.8605 0
v  250 20.8605 -62.5
v  125 20.8605 -125
v  250 20.8605 -125
v  0 20.8605 -125
v  -125 20.8605 -125
v  -250 20.8605 -62.5
v  -250 20.8605 -125
v  250 20.8605 125

# 25 UV coordinates
vt 0.0219 0.0219 0
vt 0.261 0.0219 0
vt 0.261 0.1414 0
vt 0.0219 0.1414 0
vt 0.5 0.0219 0
vt 0.5 0.1414 0
vt 0.261 0.261 0
vt 0.5 0.261 0
vt 0.0219 0.261 0
vt 0.261 0.3805 0
vt 0.5 0.3805 0
vt 0.739 0.261 0
vt 0.739 0.3805 0
vt 0.739 0.1414 0
vt 0.739 0.0219 0
vt 0.9781 0.1414 0
vt 0.9781 0.261 0
vt 0.9781 0.3805 0
vt 0.739 0.5 0
vt 0.9781 0.5 0
vt 0.5 0.5 0
vt 0.261 0.5 0
vt 0.0219 0.3805 0
vt 0.0219 0.5 0
vt 0.9781 0.0219 0

# 1 vertex normals
vn 0 1 0

# Mesh 'g Plane001' with 32 faces
g g Plane001
usemtl DefaultMaterial
f  1/1/1 2/2/1 3/3/1
f  1/1/1 3/3/1 4/4/1
f  2/2/1 5/5/1 6/6/1
f  2/2/1 6/6/1 3/3/1
f  4/4/1 3/3/1 7/7/1
f  3/3/1 6/6/1 8/8/1
f  3/3/1 8/8/1 7/7/1
f  4/4/1 7/7/1 9/9/1
f  9/9/1 7/7/1 10/10/1
f  7/7/1 8/8/1 11/11/1
f  7/7/1 11/11/1 10/10/1
f  6/6/1 12/12/1 8/8/1
f  8/8/1 12/12/1 13/13/1
f  8/8/1 13/13/1 11/11/1
f  5/5/1 14/14/1 6/6/1
f  6/6/1 14/14/1 12/12/1
f  5/5/1 15/15/1 14/14/1
f  15/15/1 16/16/1 14/14/1
f  14/14/1 16/16/1 17/17/1
f  14/14/1 17/17/1 12/12/1
f  12/12/1 17/17/1 18/18/1
f  12/12/1 18/18/1 13/13/1
f  11/11/1 13/13/1 19/19/1
f  13/13/1 18/18/1 20/20/1
f  13/13/1 20/20/1 19/19/1
f  11/11/1 19/19/1 21/21/1
f  10/10/1 11/11/1 21/21/1
f  10/10/1 21/21/1 22/22/1
f  23/23/1 10/10/1 22/22/1
f  23/23/1 22/22/1 24/24/1
f  9/9/1 10/10/1 23/23/1
f  15/15/1 25/25/1 16/16/1

