# File produced by Open Asset Import Library (http://www.assimp.sf.net)
# (assimp v3.1.187496374)

mtllib Scrab beta (1).obj.mtl

# 136 vertex positions
v  -0.6623 1.6169 0.0001
v  1.8066 1.6169 0.0001
v  0.7436 1.6169 -1.0338
v  -0.2108 1.6169 -1.0338
v  -0.2108 1.6169 1.034
v  0.7436 1.6169 1.034
v  -0.7469 1.1509 -1.6809
v  -0.5359 0.7558 -1.7065
v  -1.4699 0.7535 -2.1046
v  -1.4879 1.1532 -2.0187
v  1.3552 1.1517 -1.7123
v  0.9553 0.7551 -1.6986
v  1.8232 1.1571 -1.962
v  1.7941 0.7496 -2.088
v  2.9015 1.158 -1.9649
v  2.965 0.7487 -2.0851
v  -1.1718 1.3242 -0.5492
v  -1.3457 1.3242 -0.9932
v  -1.4622 0.4937 -0.8224
v  -1.0638 0.4937 0.0053
v  2.4151 1.3242 -1.0664
v  2.4234 0.486 -0.8224
v  3.2185 0.4937 -0.8224
v  3.2185 1.3242 -1.0664
v  3.5132 1.3242 -1.0664
v  3.9747 0.4937 -0.8224
v  1.3678 1.3242 -1.4592
v  2.4151 1.3242 -0.5908
v  1.8356 1.3242 -1.6881
v  3.0894 1.3242 -1.6881
v  3.3934 1.0792 -1.1442
v  3.6208 0.6699 -1.024
v  3.214 0.6699 -1.6208
v  3.1505 1.0792 -1.5006
v  -2.9988 1.1536 -2.0205
v  -3.0448 0.7531 -2.1028
v  -0.7571 1.3242 -1.4357
v  -1.498 1.3242 -1.7613
v  -3.2916 1.3242 -0.9932
v  -3.1962 1.3242 -1.7613
v  -3.669 1.3242 -0.9932
v  -3.2916 0.4937 -0.8224
v  -3.9746 0.4937 -0.8224
v  -3.5385 1.1563 -1.0336
v  -3.1883 1.1563 -1.6027
v  -3.2506 0.6125 -1.7145
v  -3.7386 0.6125 -0.9218
v  -0.7469 1.1509 1.681
v  -1.4879 1.1532 2.0188
v  -1.4699 0.7535 2.1047
v  -0.5359 0.7558 1.7066
v  0.9553 0.7551 1.6988
v  1.3552 1.1517 1.7124
v  1.7941 0.7496 2.0882
v  1.8232 1.1571 1.9622
v  2.965 0.7487 2.0852
v  2.9015 1.158 1.9651
v  2.4151 1.3242 0.5909
v  2.4151 1.3242 1.0665
v  2.4234 0.486 0.8226
v  2.4234 0.486 -0.0052
v  2.4234 0.486 0.0053
v  -1.4622 0.4937 0.8226
v  -1.3457 1.3242 0.9933
v  -1.1718 1.3242 0.5494
v  -1.0638 0.4937 -0.0052
v  3.2185 0.4937 0.8226
v  3.2185 1.3242 1.0665
v  3.5132 1.3242 1.0665
v  3.9747 0.4937 0.8226
v  3.2185 0.201 1.1641
v  3.3285 0.201 1.1641
v  3.0378 0.201 1.5906
v  1.8583 0.201 1.5906
v  2.2499 0.2968 1.1641
v  1.0194 0.201 1.1803
v  2.0883 0.1205 0.0001
v  -0.5999 0.201 1.1803
v  1.0194 0.201 -1.1802
v  2.2499 0.2968 -1.1639
v  -0.5999 0.201 -1.1802
v  -0.7222 0.201 0.0001
v  -1.5339 0.201 1.5906
v  -1.5339 0.201 -1.5905
v  -1.2476 0.201 1.1641
v  -3.1009 0.201 1.5906
v  -3.2916 0.201 1.1641
v  -3.3635 0.201 1.1641
v  1.8583 0.201 -1.5905
v  3.0378 0.201 -1.5905
v  3.2185 0.201 -1.1639
v  3.3285 0.201 -1.1639
v  -3.2916 0.201 -1.1639
v  -3.3635 0.201 -1.1639
v  -3.1009 0.201 -1.5905
v  -1.2476 0.201 -1.1639
v  3.0894 1.3242 1.6882
v  1.8356 1.3242 1.6882
v  1.3678 1.3242 1.4594
v  3.214 0.6699 1.621
v  3.6208 0.6699 1.024
v  3.3934 1.0792 1.1443
v  3.1505 1.0792 1.5008
v  -2.9988 1.1536 2.0206
v  -3.0448 0.7531 2.1028
v  -3.2916 1.3242 0.9933
v  -3.1962 1.3242 1.7614
v  -1.498 1.3242 1.7614
v  -3.669 1.3242 0.9933
v  -0.7571 1.3242 1.4358
v  -3.2916 0.4937 0.8226
v  -3.9746 0.4937 0.8226
v  -3.5385 1.1563 1.0337
v  -3.7386 0.6125 0.9219
v  -3.2506 0.6125 1.7146
v  -3.1883 1.1563 1.6028
v  -3.2916 0.4937 1.9321
v  -1.4622 0.4937 1.9321
v  -0.5282 0.4937 1.5218
v  0.9404 0.4937 1.5218
v  1.7793 0.4937 1.9321
v  3.2185 0.4937 1.9321
v  3.2185 0.4937 -1.932
v  1.7793 0.4937 -1.932
v  0.9404 0.4937 -1.5217
v  -0.5282 0.4937 -1.5217
v  -1.4622 0.4937 -1.932
v  -3.2916 0.4937 -1.932
v  3.2492 0.5639 -1.8503
v  3.1421 1.254 -1.6476
v  3.889 0.5639 -0.9116
v  3.5055 1.254 -1.1142
v  3.2492 0.5639 1.8503
v  3.1421 1.254 1.6477
v  3.889 0.5639 0.9117
v  3.5055 1.254 1.1144

# 393 UV coordinates
vt 0.7128 0.0783 0
vt 0.5305 0.0783 0
vt 0.609 0.1546 0
vt 0.6794 0.1546 0
vt 0.6794 0.002 0
vt 0.609 0.002 0
vt 0.8373 0.954 0
vt 0.8205 0.9826 0
vt 0.895 0.9907 0
vt 0.897 0.9606 0
vt 0.8446 0.7979 0
vt 0.6895 0.7979 0
vt 0.719 0.8272 0
vt 0.829 0.8271 0
vt 0.4903 0.6408 0
vt 0.4522 0.6467 0
vt 0.4527 0.6779 0
vt 0.5209 0.6695 0
vt 0.3739 0.6389 0
vt 0.3663 0.6699 0
vt 0.0485 0.6537 0
vt 0.0609 0.6482 0
vt 0.048 0.6275 0
vt 0.0244 0.6385 0
vt 0.6888 0.8438 0
vt 0.6894 0.9082 0
vt 0.7481 0.9077 0
vt 0.7481 0.8438 0
vt 0.7699 0.8437 0
vt 0.8039 0.9076 0
vt 0.1599 0.8389 0
vt 0.0836 0.7737 0
vt 0.0831 0.8088 0
vt 0.1251 0.8553 0
vt 0.0326 0.8539 0
vt 0.0238 0.8079 0
vt 0.002 0.8075 0
vt 0.9275 0.9351 0
vt 0.9136 0.968 0
vt 0.9667 0.9632 0
vt 0.9592 0.9323 0
vt 0.4748 0.8856 0
vt 0.3635 0.8926 0
vt 0.3641 0.9228 0
vt 0.4801 0.9155 0
vt 0.7728 0.0348 0
vt 0.76 0.002 0
vt 0.7294 0.0674 0
vt 0.7841 0.0915 0
vt 0.9165 0.0348 0
vt 0.9094 0.0915 0
vt 0.9443 0.0348 0
vt 0.696 0.3144 0
vt 0.6956 0.377 0
vt 0.8306 0.3778 0
vt 0.8396 0.3153 0
vt 0.6681 0.3142 0
vt 0.6452 0.3767 0
vt 0.2862 0.8165 0
vt 0.2369 0.8169 0
vt 0.2326 0.858 0
vt 0.3013 0.8574 0
vt 0.4225 0.9611 0
vt 0.3628 0.9679 0
vt 0.3649 0.998 0
vt 0.4393 0.9897 0
vt 0.8741 0.5141 0
vt 0.9036 0.4848 0
vt 0.7485 0.4849 0
vt 0.7641 0.5141 0
vt 0.431 0.7586 0
vt 0.4314 0.7275 0
vt 0.3932 0.7217 0
vt 0.3628 0.7505 0
vt 0.5172 0.7509 0
vt 0.5098 0.7199 0
vt 0.6088 0.4623 0
vt 0.5738 0.4623 0
vt 0.5917 0.524 0
vt 0.6527 0.5241 0
vt 0.7133 0.524 0
vt 0.7308 0.4622 0
vt 0.6958 0.4625 0
vt 0.6524 0.5245 0
vt 0.0489 0.7393 0
vt 0.133 0.7571 0
vt 0.1366 0.7093 0
vt 0.057 0.6473 0
vt 0.5816 0.9255 0
vt 0.6403 0.9261 0
vt 0.6409 0.8616 0
vt 0.5816 0.8616 0
vt 0.5599 0.8616 0
vt 0.5258 0.9255 0
vt 0.022 0.2676 0
vt 0.0139 0.2684 0
vt 0.0384 0.2976 0
vt 0.1253 0.289 0
vt 0.0935 0.2593 0
vt 0.1847 0.2537 0
vt 0.1 0.1717 0
vt 0.3042 0.2458 0
vt 0.1732 0.0792 0
vt 0.0821 0.0856 0
vt 0.2928 0.0715 0
vt 0.3075 0.1581 0
vt 0.3752 0.2716 0
vt 0.3598 0.0367 0
vt 0.3597 0.2368 0
vt 0.4894 0.2915 0
vt 0.5087 0.2629 0
vt 0.5139 0.2638 0
vt 0.1097 0.052 0
vt 0.0225 0.0548 0
vt 0.0101 0.0868 0
vt 0.002 0.087 0
vt 0.4933 0.0279 0
vt 0.4984 0.0263 0
vt 0.4704 0.002 0
vt 0.349 0.0732 0
vt 0.7599 0.1095 0
vt 0.7294 0.1559 0
vt 0.7511 0.1555 0
vt 0.8104 0.1546 0
vt 0.8525 0.1081 0
vt 0.811 0.1897 0
vt 0.8873 0.1244 0
vt 0.4559 0.9704 0
vt 0.509 0.9751 0
vt 0.4951 0.9423 0
vt 0.4634 0.9394 0
vt 0.8693 0.338 0
vt 0.8639 0.3679 0
vt 0.98 0.3754 0
vt 0.9806 0.3452 0
vt 0.2335 0.3719 0
vt 0.2269 0.3152 0
vt 0.1016 0.3142 0
vt 0.0899 0.3709 0
vt 0.2614 0.3722 0
vt 0.0467 0.3379 0
vt 0.0768 0.4035 0
vt 0.3718 0.5258 0
vt 0.5068 0.525 0
vt 0.5064 0.4624 0
vt 0.3628 0.4632 0
vt 0.5572 0.5247 0
vt 0.5343 0.4622 0
vt 0.8528 0.8581 0
vt 0.8365 0.8985 0
vt 0.9051 0.9012 0
vt 0.9021 0.86 0
vt 0.9447 0.1705 0
vt 0.9853 0.1081 0
vt 0.9038 0.1081 0
vt 0.945 0.1702 0
vt 0.2206 0.6648 0
vt 0.2639 0.6979 0
vt 0.2968 0.6336 0
vt 0.2568 0.5898 0
vt 0.8802 0.3944 0
vt 0.8337 0.4319 0
vt 0.9905 0.4325 0
vt 0.9507 0.3953 0
vt 0.2685 0.4622 0
vt 0.2206 0.5079 0
vt 0.2969 0.5732 0
vt 0.3462 0.5393 0
vt 0.203 0.657 0
vt 0.1532 0.6134 0
vt 0.1532 0.7006 0
vt 0.5784 0.2822 0
vt 0.6561 0.2051 0
vt 0.6068 0.1712 0
vt 0.5305 0.2365 0
vt 0.8365 0.6945 0
vt 0.766 0.6954 0
vt 0.7262 0.7326 0
vt 0.883 0.732 0
vt 0.002 0.3691 0
vt 0.0349 0.4456 0
vt 0.1464 0.9124 0
vt 0.1898 0.953 0
vt 0.1898 0.8719 0
vt 0.0156 0.6292 0
vt 0.0482 0.6134 0
vt 0.4986 0.4332 0
vt 0.5318 0.4336 0
vt 0.5318 0.4329 0
vt 0.002 0.7568 0
vt 0.4264 0.3714 0
vt 0.4324 0.3388 0
vt 0.2996 0.3142 0
vt 0.278 0.344 0
vt 0.4316 0.3724 0
vt 0.482 0.348 0
vt 0.4143 0.4051 0
vt 0.4371 0.4331 0
vt 0.7444 0.2429 0
vt 0.86 0.2396 0
vt 0.8644 0.2063 0
vt 0.7294 0.2101 0
vt 0.9322 0.261 0
vt 0.9366 0.2277 0
vt 0.6394 0.9427 0
vt 0.531 0.9427 0
vt 0.5258 0.9759 0
vt 0.6453 0.9759 0
vt 0.6081 0.7279 0
vt 0.6034 0.6945 0
vt 0.5378 0.7158 0
vt 0.5426 0.7492 0
vt 0.6952 0.7308 0
vt 0.7096 0.698 0
vt 0.5499 0.3553 0
vt 0.4986 0.3281 0
vt 0.5438 0.4163 0
vt 0.5673 0.3892 0
vt 0.558 0.3544 0
vt 0.554 0.3214 0
vt 0.6286 0.3412 0
vt 0.6122 0.3142 0
vt 0.8117 0.6499 0
vt 0.8977 0.6341 0
vt 0.873 0.6147 0
vt 0.8121 0.6135 0
vt 0.7504 0.6148 0
vt 0.7257 0.6342 0
vt 0.8113 0.6135 0
vt 0.0581 0.9318 0
vt 0.0578 0.965 0
vt 0.1165 0.9652 0
vt 0.1298 0.9366 0
vt 0.05 0.9318 0
vt 0.002 0.9645 0
vt 0.0635 0.8961 0
vt 0.0372 0.8719 0
vt 0.5518 0.6494 0
vt 0.6388 0.6468 0
vt 0.6436 0.6135 0
vt 0.5375 0.6166 0
vt 0.7043 0.6684 0
vt 0.7091 0.635 0
vt 0.9766 0.7755 0
vt 0.8682 0.7752 0
vt 0.8623 0.8084 0
vt 0.9818 0.8087 0
vt 0.4393 0.5757 0
vt 0.4351 0.5424 0
vt 0.3628 0.5635 0
vt 0.3671 0.5969 0
vt 0.5549 0.5794 0
vt 0.5701 0.5466 0
vt 0.151 0.5231 0
vt 0.204 0.5413 0
vt 0.1492 0.4622 0
vt 0.13 0.4927 0
vt 0.146 0.5247 0
vt 0.1559 0.5563 0
vt 0.002 0.5698 0
vt 0.0271 0.5968 0
vt 0.192 0.8259 0
vt 0.1972 0.785 0
vt 0.1845 0.7737 0
vt 0.1765 0.8361 0
vt 0.2937 0.8024 0
vt 0.2271 0.803 0
vt 0.0528 0.9972 0
vt 0.0685 0.9836 0
vt 0.002 0.9818 0
vt 0.0092 0.996 0
vt 0.2206 0.8721 0
vt 0.3168 0.8713 0
vt 0.318 0.6419 0
vt 0.3334 0.6524 0
vt 0.3263 0.5898 0
vt 0.3134 0.6009 0
vt 0.8205 0.9119 0
vt 0.9166 0.9157 0
vt 0.9519 0.8966 0
vt 0.9674 0.8558 0
vt 0.9569 0.8437 0
vt 0.9332 0.9059 0
vt 0.9123 0.8464 0
vt 0.8458 0.8437 0
vt 0.3127 0.7725 0
vt 0.3194 0.7774 0
vt 0.3044 0.7145 0
vt 0.3002 0.7203 0
vt 0.2291 0.7797 0
vt 0.2206 0.7858 0
vt 0.2528 0.7244 0
vt 0.2491 0.7193 0
vt 0.6955 0.9828 0
vt 0.7079 0.9306 0
vt 0.7037 0.9248 0
vt 0.6888 0.9877 0
vt 0.7791 0.9899 0
vt 0.7554 0.9346 0
vt 0.7591 0.9295 0
vt 0.7876 0.9961 0
vt 0.1587 0.9701 0
vt 0.1464 0.9844 0
vt 0.2001 0.9835 0
vt 0.1905 0.9696 0
vt 0.7955 0.2921 0
vt 0.8132 0.2776 0
vt 0.7294 0.2795 0
vt 0.7422 0.2933 0
vt 0.9419 0.5157 0
vt 0.959 0.4844 0
vt 0.9498 0.4719 0
vt 0.9209 0.5247 0
vt 0.9902 0.4779 0
vt 0.9964 0.4622 0
vt 0.8466 0.5565 0
vt 0.8506 0.5881 0
vt 0.8657 0.5956 0
vt 0.859 0.5424 0
vt 0.9205 0.6291 0
vt 0.9517 0.6356 0
vt 0.9609 0.6232 0
vt 0.9143 0.6135 0
vt 0.9688 0.6669 0
vt 0.9898 0.676 0
vt 0.7933 0.5571 0
vt 0.7752 0.5432 0
vt 0.2935 0.9092 0
vt 0.2215 0.8887 0
vt 0.2206 0.9117 0
vt 0.2929 0.9329 0
vt 0.5561 0.8154 0
vt 0.5366 0.8373 0
vt 0.6715 0.845 0
vt 0.6722 0.822 0
vt 0.5509 0.7855 0
vt 0.5258 0.7752 0
vt 0.9813 0.3224 0
vt 0.8562 0.3142 0
vt 0.4269 0.9394 0
vt 0.3675 0.9455 0
vt 0.9043 0.4622 0
vt 0.7474 0.4627 0
vt 0.4284 0.7043 0
vt 0.3894 0.6989 0
vt 0.5213 0.6945 0
vt 0.6803 0.2225 0
vt 0.7067 0.234 0
vt 0.6913 0.1712 0
vt 0.6727 0.1916 0
vt 0.7966 0.3944 0
vt 0.7105 0.4015 0
vt 0.7112 0.4236 0
vt 0.8171 0.4147 0
vt 0.6452 0.4214 0
vt 0.6456 0.4448 0
vt 0.8829 0.566 0
vt 0.9913 0.5658 0
vt 0.9924 0.5425 0
vt 0.8823 0.5424 0
vt 0.8996 0.7149 0
vt 0.9002 0.7385 0
vt 0.9726 0.7175 0
vt 0.9717 0.6945 0
vt 0.2216 0.9729 0
vt 0.33 0.9732 0
vt 0.3307 0.9495 0
vt 0.2206 0.9496 0
vt 0.7586 0.5692 0
vt 0.6933 0.5494 0
vt 0.6925 0.5715 0
vt 0.7582 0.5926 0
vt 0.6071 0.5424 0
vt 0.5867 0.5627 0
vt 0.9874 0.0533 0
vt 0.9951 0.0224 0
vt 0.9765 0.002 0
vt 0.9609 0.0647 0
vt 0.4555 0.6236 0
vt 0.3628 0.6135 0
vt 0.4947 0.6179 0
vt 0.8457 0.7758 0
vt 0.6888 0.7752 0
vt 0.8923 0.9383 0
vt 0.8328 0.9323 0
vt 0.4879 0.8618 0
vt 0.3628 0.8698 0
vt 0.4789 0.8155 0
vt 0.4984 0.8373 0
vt 0.5092 0.7752 0
vt 0.4841 0.7856 0
vt 0.3628 0.8222 0
vt 0.3636 0.8452 0

# 179 vertex normals
vn 0 1 0
vn 0.2501 0.1852 -0.9504
vn 0.1304 0.1262 -0.9834
vn 0.2036 0.2213 -0.9537
vn 0.2082 0.2145 -0.9543
vn -0.0001 -0.0143 -0.9999
vn 0.0052 -0.0397 -0.9992
vn -0.4333 0.4093 -0.803
vn -0.2093 0.3174 -0.9249
vn -0.2034 0.3025 -0.9312
vn -0.4174 0.3522 -0.8377
vn -0.0028 0.2814 -0.9596
vn -0.0015 0.2849 -0.9586
vn -0.9662 0.0439 0.2539
vn -0.9029 0.1687 0.3953
vn -0.8808 0.2107 0.424
vn 0.1671 0.6005 0.7819
vn 0 0.2794 0.9602
vn 0.4022 -0.6812 0.6117
vn -0.0014 0.2818 0.9595
vn -0.0006 0.2812 0.9597
vn 0 0.2818 0.9595
vn -0.0772 0.8974 -0.4343
vn -0.0869 0.9486 -0.3044
vn -0.0005 0.9849 -0.1729
vn 0.7929 0.2818 -0.5403
vn -0.0008 0.2029 -0.9792
vn -0.0012 0.2015 -0.9795
vn 0.0625 0.9084 -0.4134
vn 0.0744 0.945 -0.3186
vn 0 0.9831 -0.1833
vn 0 0.2014 0.9795
vn -0.8341 0.2014 -0.5135
vn 0.2501 0.1852 0.9504
vn 0.2082 0.2145 0.9543
vn 0.2036 0.2213 0.9537
vn 0.1304 0.1262 0.9834
vn 0.0052 -0.0397 0.9992
vn -0.0001 -0.0143 0.9999
vn -0.2034 0.3025 0.9312
vn -0.2093 0.3174 0.9249
vn -0.4333 0.4093 0.803
vn -0.4174 0.3522 0.8377
vn -0.0015 0.2849 0.9586
vn -0.0028 0.2814 0.9596
vn 1 0.01 0
vn -0.9999 -0.0103 -0
vn -0.9999 -0.0156 -0
vn -0.8808 0.2107 -0.424
vn -0.9029 0.1687 -0.3953
vn -0.9662 0.0439 -0.2539
vn 0.1671 0.6005 -0.7819
vn -0.0014 0.2818 -0.9595
vn 0.4313 -0.6962 -0.5738
vn 0 0.2794 -0.9602
vn -0.0006 0.2812 -0.9597
vn 0 0.2818 -0.9595
vn -0.0095 -0.9995 -0.0304
vn 0 -1 0
vn 0.0324 -0.9855 -0.1663
vn -0.009 -0.9905 -0.1373
vn 0.0281 -0.9981 0.0555
vn 0.0336 -0.9994 0
vn -0.0101 -0.9999 0.009
vn 0.0281 -0.9981 -0.0555
vn -0.009 -0.9905 0.1373
vn -0.0101 -0.9999 -0.009
vn -0.0211 -0.9998 -0
vn 0.0324 -0.9855 0.1663
vn -0.0095 -0.9995 0.0304
vn 0 0.985 0.1727
vn -0.0788 0.9505 0.3005
vn -0.0794 0.8997 0.4293
vn 0.7929 0.2818 0.5403
vn -0.0008 0.2029 0.9792
vn -0.0012 0.2015 0.9795
vn 0.0002 0.983 0.1834
vn 0.0775 0.9442 0.32
vn 0.0597 0.9079 0.415
vn 0 0.2014 -0.9795
vn -0.8341 0.2014 0.5135
vn -0.3619 0.9178 -0.1632
vn -0.0055 0.818 -0.5752
vn 0 0.8083 -0.5888
vn 0.2326 0.9377 -0.258
vn 0.4335 0.9011 0
vn 0.2326 0.9377 0.258
vn 0 0.8238 0.5668
vn -0.0056 0.814 0.5809
vn -0.3619 0.9178 0.1632
vn -0.4981 0.8671 0
vn -0.6124 -0.7358 0.2891
vn -0.6186 -0.7271 0.2978
vn -0.6025 -0.7491 0.2754
vn -0.5986 -0.7541 0.2702
vn 0.6508 0.7593 0
vn -0.6221 -0.7309 -0.2808
vn -0.5981 -0.7502 -0.2818
vn -0.5864 -0.7593 -0.2823
vn -0.6151 -0.7366 -0.2811
vn 0 -0.7593 -0.6508
vn -0.5542 -0.7593 0.3411
vn 0 -0.7593 0.6508
vn 0.1321 -0.7661 0.629
vn 0.165 -0.6506 0.7413
vn 0 -0.6747 0.7381
vn 0.1431 -0.6805 0.7186
vn -0.1572 -0.6754 0.7206
vn -0.1445 -0.7676 0.6245
vn -0.1829 -0.6335 0.7518
vn 0.0006 -0.6648 0.747
vn 0.5378 -0.7593 0.3665
vn -0.0367 -0.7587 -0.6504
vn -0.0274 -0.775 -0.6314
vn 0.3298 -0.8718 -0.3623
vn 0.737 -0.6759 0
vn 0.2919 -0.8918 0.3457
vn 0.6721 -0.6721 -0.3106
vn -0.5547 0.8321 0
vn -0.0099 -0.7747 0.6323
vn 0.0037 -0.7593 0.6508
vn 0.5378 -0.7593 -0.3665
vn -0.1445 -0.7676 -0.6245
vn -0.187 -0.6309 -0.753
vn 0 -0.6646 -0.7472
vn -0.1563 -0.6735 -0.7225
vn 0.1451 -0.6807 -0.7181
vn 0.1321 -0.7661 -0.629
vn 0.1628 -0.6519 -0.7406
vn -0.0003 -0.6748 -0.738
vn -0.5542 -0.7593 -0.3411
vn -0.9866 0.0846 0.1398
vn -0.7506 -0.4724 -0.462
vn -0.3623 -0.0579 -0.9302
vn -0.531 0.7818 -0.3269
vn -0.9866 0.0846 -0.1398
vn -0.531 0.7818 0.3269
vn -0.3623 -0.0579 0.9302
vn -0.7506 -0.4724 0.462
vn 0.7568 0.2896 -0.586
vn 0.7596 0.2891 -0.5827
vn 0.7596 0.2891 0.5827
vn 0.7568 0.2896 0.586
vn 0.9876 0.126 0.0932
vn 0.46 0.8307 -0.3135
vn 0.3611 -0.0725 -0.9297
vn 0.7582 -0.3978 -0.5167
vn 0.9876 0.126 -0.0932
vn 0.7582 -0.3978 0.5167
vn 0.3611 -0.0725 0.9297
vn 0.46 0.8307 0.3135
vn 0.1824 -0.5619 0.8068
vn 0.1578 -0.5452 0.8233
vn -0.0001 -0.5501 0.8351
vn -0.7008 0.22 0.6786
vn 0.0009 0.8356 0.5494
vn 0.1104 0.83 0.5467
vn 0.1278 0.8142 0.5664
vn -0.1639 0.8184 0.5508
vn -0.1164 0.8464 0.5197
vn -0.0003 0.8569 0.5156
vn 0.6959 0.2997 0.6526
vn 0.0018 -0.5134 0.8581
vn -0.1706 -0.5052 0.846
vn -0.2096 -0.5361 0.8177
vn 0.1882 -0.5601 -0.8067
vn 0.1558 -0.5431 -0.8251
vn -0.2035 -0.5418 -0.8155
vn -0.1742 -0.5091 -0.8429
vn 0.0002 -0.5154 -0.857
vn 0.6959 0.2997 -0.6526
vn -0.0021 0.858 -0.5137
vn -0.1208 0.8503 -0.5122
vn -0.15 0.8251 -0.5447
vn 0.1346 0.8122 -0.5676
vn 0.1082 0.8283 -0.5497
vn 0.0001 0.8351 -0.5502
vn -0.7008 0.22 -0.6786
vn -0.0008 -0.5493 -0.8356

# Mesh 'g Box002' with 268 faces
g g Box002
usemtl DefaultMaterial
f  1/1/1 2/2/1 3/3/1
f  1/1/1 3/3/1 4/4/1
f  1/1/1 5/5/1 6/6/1
f  1/1/1 6/6/1 2/2/1
f  7/7/2 8/8/3 9/9/4
f  7/7/2 9/9/4 10/10/5
f  7/11/2 11/12/6 12/13/7
f  7/11/2 12/13/7 8/14/3
f  11/15/8 13/16/9 14/17/10
f  11/15/8 14/17/10 12/18/11
f  15/19/12 14/17/10 13/16/9
f  15/19/12 16/20/13 14/17/10
f  17/21/14 18/22/15 19/23/16
f  17/21/14 19/23/16 20/24/17
f  21/25/18 22/26/19 23/27/20
f  21/25/18 23/27/20 24/28/21
f  25/29/22 24/28/21 23/27/20
f  25/29/22 23/27/20 26/30/22
f  27/31/23 28/32/1 21/33/1
f  27/31/23 21/33/1 29/34/24
f  30/35/25 29/34/24 21/33/1
f  30/35/25 21/33/1 24/36/1
f  25/37/1 30/35/25 24/36/1
f  31/38/26 32/39/26 33/40/26
f  31/38/26 33/40/26 34/41/26
f  35/42/27 10/43/5 9/44/4
f  35/42/27 9/44/4 36/45/28
f  18/46/1 17/47/1 37/48/29
f  18/46/1 37/48/29 38/49/30
f  39/50/1 18/46/1 38/49/30
f  39/50/1 38/49/30 40/51/31
f  41/52/1 39/50/1 40/51/31
f  39/53/32 42/54/32 19/55/32
f  39/53/32 19/55/32 18/56/32
f  41/57/32 42/54/32 39/53/32
f  41/57/32 43/58/32 42/54/32
f  44/59/33 45/60/33 46/61/33
f  44/59/33 46/61/33 47/62/33
f  48/63/34 49/64/35 50/65/36
f  48/63/34 50/65/36 51/66/37
f  52/67/38 53/68/39 48/69/34
f  52/67/38 48/69/34 51/70/37
f  54/71/40 55/72/41 53/73/42
f  54/71/40 53/73/42 52/74/43
f  54/71/40 56/75/44 57/76/45
f  54/71/40 57/76/45 55/72/41
f  58/77/46 59/78/46 60/79/46
f  58/77/46 60/79/46 61/80/47
f  22/81/46 21/82/46 28/83/46
f  22/81/46 28/83/46 62/84/48
f  62/84/48 28/83/46 58/77/46
f  62/84/48 58/77/46 61/80/47
f  63/85/49 64/86/50 65/87/51
f  63/85/49 65/87/51 66/88/52
f  67/89/53 60/90/54 59/91/55
f  67/89/53 59/91/55 68/92/56
f  69/93/57 70/94/57 67/89/53
f  69/93/57 67/89/53 68/92/56
f  71/95/58 72/96/59 73/97/59
f  71/95/58 73/97/59 74/98/60
f  74/98/60 75/99/61 71/95/58
f  74/98/60 76/100/62 75/99/61
f  76/100/62 77/101/63 75/99/61
f  76/100/62 78/102/64 77/101/63
f  79/103/65 80/104/66 77/101/63
f  79/103/65 77/101/63 81/105/67
f  81/105/67 77/101/63 82/106/68
f  78/102/64 82/106/68 77/101/63
f  78/102/64 83/107/59 82/106/68
f  81/105/67 82/106/68 84/108/59
f  85/109/1 82/106/68 83/107/59
f  85/109/1 83/107/59 86/110/59
f  86/110/59 87/111/59 85/109/1
f  86/110/59 88/112/59 87/111/59
f  89/113/69 80/104/66 79/103/65
f  90/114/59 91/115/70 89/113/69
f  89/113/69 91/115/70 80/104/66
f  90/114/59 92/116/59 91/115/70
f  93/117/59 94/118/59 95/119/59
f  93/117/59 95/119/59 96/120/1
f  96/120/1 95/119/59 84/108/59
f  96/120/1 84/108/59 82/106/68
f  97/121/71 69/122/1 68/123/1
f  97/121/71 68/123/1 59/124/1
f  59/124/1 98/125/72 97/121/71
f  59/124/1 58/126/1 99/127/73
f  59/124/1 99/127/73 98/125/72
f  100/128/74 101/129/74 102/130/74
f  100/128/74 102/130/74 103/131/74
f  104/132/75 105/133/76 50/134/36
f  104/132/75 50/134/36 49/135/35
f  106/136/1 107/137/77 108/138/78
f  106/136/1 108/138/78 64/139/1
f  106/136/1 109/140/1 107/137/77
f  110/141/79 64/139/1 108/138/78
f  110/141/79 65/142/1 64/139/1
f  63/143/80 111/144/80 106/145/80
f  63/143/80 106/145/80 64/146/80
f  111/144/80 112/147/80 109/148/80
f  111/144/80 109/148/80 106/145/80
f  113/149/81 114/150/81 115/151/81
f  113/149/81 115/151/81 116/152/81
f  66/153/52 65/154/51 17/155/14
f  66/153/52 17/155/14 20/156/17
f  4/157/82 37/158/82 17/159/82
f  4/157/82 17/159/82 1/160/82
f  3/161/83 27/162/23 37/163/29
f  3/161/83 37/163/29 4/164/84
f  2/165/85 28/166/85 27/167/85
f  2/165/85 27/167/85 3/168/85
f  2/169/86 58/170/86 28/171/86
f  2/172/87 6/173/87 99/174/87
f  2/172/87 99/174/87 58/175/87
f  6/176/88 5/177/89 110/178/79
f  6/176/88 110/178/79 99/179/73
f  5/180/90 1/181/90 65/142/90
f  5/180/90 65/142/90 110/141/90
f  1/182/91 17/183/91 65/184/91
f  82/185/92 20/24/93 19/23/94
f  82/185/92 19/23/94 96/186/95
f  82/187/96 66/188/96 20/189/96
f  82/185/97 85/190/98 63/85/99
f  82/185/97 63/85/99 66/88/100
f  87/191/101 111/192/101 63/193/101
f  87/191/101 63/193/101 85/194/101
f  88/195/101 111/192/101 87/191/101
f  88/195/101 112/196/101 111/192/101
f  88/195/102 86/197/102 117/198/102
f  88/195/102 117/198/102 112/196/102
f  86/199/103 83/200/104 118/201/105
f  86/199/103 118/201/105 117/202/106
f  83/200/104 78/203/104 119/204/107
f  83/200/104 119/204/107 118/201/105
f  120/205/108 119/206/107 78/207/104
f  120/205/108 78/207/104 76/208/109
f  74/209/109 121/210/110 120/211/108
f  74/209/109 120/211/108 76/212/109
f  73/213/103 121/210/110 74/209/109
f  73/213/103 122/214/111 121/210/110
f  72/215/112 70/216/112 122/217/112
f  72/215/112 122/217/112 73/218/112
f  72/215/101 71/219/113 67/220/114
f  72/215/101 67/220/114 70/216/101
f  71/219/113 75/221/115 60/222/54
f  71/219/113 60/222/54 67/220/114
f  77/223/116 80/224/117 22/225/19
f  77/223/116 22/225/19 62/226/118
f  62/226/118 60/227/54 77/223/116
f  75/228/115 77/223/116 60/227/54
f  62/226/118 61/229/119 60/227/54
f  91/230/120 23/231/121 22/232/19
f  91/230/120 22/232/19 80/233/117
f  92/234/103 23/231/121 91/230/120
f  92/234/103 26/235/103 23/231/121
f  92/234/122 90/236/122 123/237/122
f  92/234/122 123/237/122 26/235/122
f  90/238/101 89/239/123 124/240/124
f  90/238/101 124/240/124 123/241/125
f  89/239/123 79/242/123 125/243/126
f  89/239/123 125/243/126 124/240/124
f  126/244/127 125/245/126 79/246/123
f  126/244/127 79/246/123 81/247/128
f  84/248/128 127/249/129 126/250/127
f  84/248/128 126/250/127 81/251/128
f  95/252/101 127/249/129 84/248/128
f  95/252/101 128/253/130 127/249/129
f  94/254/131 43/255/131 128/256/131
f  94/254/131 128/256/131 95/257/131
f  94/254/103 93/258/103 42/259/103
f  94/254/103 42/259/103 43/255/103
f  93/258/103 96/260/103 19/261/103
f  93/258/103 19/261/103 42/259/103
f  46/262/132 45/263/132 40/264/132
f  46/262/132 40/264/132 128/265/132
f  45/60/133 44/59/133 41/266/133
f  45/60/133 41/266/133 40/267/133
f  47/268/134 43/269/134 41/270/134
f  47/268/134 41/270/134 44/271/134
f  47/62/135 46/61/135 128/272/135
f  47/62/135 128/272/135 43/273/135
f  115/274/136 117/275/136 107/276/136
f  115/274/136 107/276/136 116/277/136
f  114/150/137 112/278/137 117/279/137
f  114/150/137 117/279/137 115/151/137
f  114/280/138 113/281/138 109/282/138
f  114/280/138 109/282/138 112/283/138
f  116/152/139 107/284/139 109/285/139
f  116/152/139 109/285/139 113/149/139
f  129/286/26 123/287/140 30/288/141
f  129/286/26 30/288/141 130/289/26
f  131/290/26 123/287/140 129/286/26
f  131/290/26 26/291/26 123/287/140
f  131/290/26 132/292/26 25/293/26
f  131/290/26 25/293/26 26/291/26
f  130/289/26 25/293/26 132/292/26
f  130/289/26 30/288/141 25/293/26
f  133/294/74 134/295/74 97/296/142
f  133/294/74 97/296/142 122/297/143
f  135/298/74 133/294/74 122/297/143
f  134/295/74 136/299/74 69/300/74
f  134/295/74 69/300/74 97/296/142
f  135/298/74 69/300/74 136/299/74
f  135/298/74 70/301/74 69/300/74
f  135/298/74 122/297/143 70/301/74
f  33/302/144 129/303/144 130/304/144
f  33/302/144 130/304/144 34/305/144
f  32/306/145 131/307/145 129/308/145
f  32/306/145 129/308/145 33/309/145
f  32/310/146 31/311/146 132/312/146
f  32/310/146 132/312/146 131/313/146
f  34/314/147 130/315/147 132/312/147
f  34/314/147 132/312/147 31/311/147
f  100/316/148 103/317/148 134/318/148
f  100/316/148 134/318/148 133/319/148
f  103/320/149 102/321/149 136/322/149
f  103/320/149 136/322/149 134/323/149
f  101/324/150 135/325/150 136/322/150
f  101/324/150 136/322/150 102/321/150
f  101/326/151 100/316/151 133/319/151
f  101/326/151 133/319/151 135/327/151
f  51/328/152 50/329/153 118/330/105
f  51/328/152 118/330/105 119/331/107
f  105/332/154 117/333/106 118/334/105
f  105/332/154 118/334/105 50/335/153
f  105/332/155 104/336/155 107/337/155
f  105/332/155 107/337/155 117/333/155
f  104/132/156 49/135/157 108/338/78
f  104/132/156 108/338/78 107/339/77
f  48/63/158 110/340/79 108/341/78
f  48/63/158 108/341/78 49/64/157
f  99/342/73 110/343/79 48/69/158
f  99/342/73 48/69/158 53/68/159
f  53/73/159 55/72/160 98/344/72
f  53/73/159 98/344/72 99/345/73
f  57/76/161 98/344/72 55/72/160
f  57/76/161 97/346/71 98/344/72
f  56/347/162 122/348/143 97/349/142
f  56/347/162 97/349/142 57/350/162
f  56/351/163 54/352/164 121/353/110
f  56/351/163 121/353/110 122/354/111
f  52/355/165 121/353/110 54/352/164
f  52/355/165 120/356/108 121/353/110
f  119/357/107 120/358/108 52/359/165
f  119/357/107 52/359/165 51/360/152
f  8/361/166 126/362/127 127/363/129
f  8/361/166 127/363/129 9/364/167
f  125/365/126 126/366/127 8/367/166
f  125/365/126 8/367/166 12/368/168
f  12/369/168 14/370/169 124/371/124
f  12/369/168 124/371/124 125/372/126
f  16/373/170 124/371/124 14/370/169
f  16/373/170 123/374/125 124/371/124
f  16/375/171 15/376/171 30/377/141
f  16/375/171 30/377/141 123/378/140
f  15/19/172 13/16/173 29/379/24
f  15/19/172 29/379/24 30/380/25
f  11/15/174 29/379/24 13/16/173
f  11/15/174 27/381/23 29/379/24
f  37/382/29 27/383/23 11/12/174
f  37/382/29 11/12/174 7/11/175
f  7/7/175 10/10/176 38/384/30
f  7/7/175 38/384/30 37/385/29
f  35/42/177 40/386/31 38/387/30
f  35/42/177 38/387/30 10/43/176
f  36/388/178 128/389/178 40/390/178
f  36/388/178 40/390/178 35/391/178
f  36/388/179 9/392/167 127/393/129
f  36/388/179 127/393/129 128/389/130

